{
  "accessors": [
    {
      "bufferView": 2,
      "componentType": 5126,
      "count": 22784,
      "max": [
        1.0018702745437622,
        0.9994887113571167,
        1.0034563541412354
      ],
      "min": [
        -0.99867606163024902,
        -1.0010660886764526,
        -0.99709832668304443
      ],
      "type": "VEC3"
    },
    {
      "bufferView": 2,
      "byteOffset": 273408,
      "componentType": 5126,
      "count": 22784,
      "max": [
        1,
        1,
        1
      ],
      "min": [
        -1,
        -1,
        -1
      ],
      "type": "VEC3"
    },
    {
      "bufferView": 3,
      "componentType": 5126,
      "count": 22784,
      "max": [
        1,
        1,
        0.99999606609344482,
        1
      ],
      "min": [
        -1,
        -0.99999594688415527,
        -0.99999618530273438,
        -1
      ],
      "type": "VEC4"
    },
    {
      "bufferView": 1,
      "componentType": 5126,
      "count": 22784,
      "max": [
        0.99944180250167847,
        0.99904179573059082
      ],
      "min": [
        0.00055833335500210524,
        0.00055833335500210524
      ],
      "type": "VEC2"
    },
    {
      "bufferView": 1,
      "byteOffset": 182272,
      "componentType": 5126,
      "count": 22784,
      "max": [
        0.99944180250167847,
        0.99904179573059082
      ],
      "min": [
        0.00055833335500210524,
        0.00055833335500210524
      ],
      "type": "VEC2"
    },
    {
      "bufferView": 1,
      "byteOffset": 364544,
      "componentType": 5126,
      "count": 22784,
      "max": [
        0.99944180250167847,
        0.99904179573059082
      ],
      "min": [
        0.00055833335500210524,
        0.00055833335500210524
      ],
      "type": "VEC2"
    },
    {
      "bufferView": 1,
      "byteOffset": 546816,
      "componentType": 5126,
      "count": 22784,
      "max": [
        0.99944180250167847,
        0.99904179573059082
      ],
      "min": [
        0.00055833335500210524,
        0.00055833335500210524
      ],
      "type": "VEC2"
    },
    {
      "bufferView": 0,
      "componentType": 5125,
      "count": 107520,
      "max": [
        22783
      ],
      "min": [
        0
      ],
      "type": "SCALAR"
    },
    {
      "bufferView": 2,
      "byteOffset": 546816,
      "componentType": 5126,
      "count": 13762,
      "max": [
        0.99819707870483398,
        0.9958072304725647,
        0.99978327751159668
      ],
      "min": [
        -0.9950031042098999,
        -0.99739289283752441,
        -0.99341678619384766
      ],
      "type": "VEC3"
    },
    {
      "bufferView": 2,
      "byteOffset": 711960,
      "componentType": 5126,
      "count": 13762,
      "max": [
        1,
        1,
        1
      ],
      "min": [
        -1,
        -1,
        -1
      ],
      "type": "VEC3"
    },
    {
      "bufferView": 3,
      "byteOffset": 364544,
      "componentType": 5126,
      "count": 13762,
      "max": [
        1,
        1,
        0.65444839000701904,
        1
      ],
      "min": [
        -1,
        -0.60489124059677124,
        -0.65444833040237427,
        -1
      ],
      "type": "VEC4"
    },
    {
      "bufferView": 1,
      "byteOffset": 729088,
      "componentType": 5126,
      "count": 13762,
      "max": [
        0.95327228307723999,
        0.95292782783508301
      ],
      "min": [
        0.046683333814144135,
        0.04671667143702507
      ],
      "type": "VEC2"
    },
    {
      "bufferView": 1,
      "byteOffset": 839184,
      "componentType": 5126,
      "count": 13762,
      "max": [
        0.95327228307723999,
        0.95292782783508301
      ],
      "min": [
        0.046683333814144135,
        0.04671667143702507
      ],
      "type": "VEC2"
    },
    {
      "bufferView": 1,
      "byteOffset": 949280,
      "componentType": 5126,
      "count": 13762,
      "max": [
        0.95327228307723999,
        0.95292782783508301
      ],
      "min": [
        0.046683333814144135,
        0.04671667143702507
      ],
      "type": "VEC2"
    },
    {
      "bufferView": 1,
      "byteOffset": 1059376,
      "componentType": 5126,
      "count": 13762,
      "max": [
        0.95327228307723999,
        0.95292782783508301
      ],
      "min": [
        0.046683333814144135,
        0.04671667143702507
      ],
      "type": "VEC2"
    },
    {
      "bufferView": 0,
      "byteOffset": 430080,
      "componentType": 5125,
      "count": 60480,
      "max": [
        13761
      ],
      "min": [
        0
      ],
      "type": "SCALAR"
    }
  ],
  "asset": {
    "extras": {
      "author": "Salim Rached (https://sketchfab.com/Salim.Rached)",
      "license": "CC-BY-4.0 (http://creativecommons.org/licenses/by/4.0/)",
      "source": "https://sketchfab.com/3d-models/dice-ed620b87a6b04747a9738cbfc8c8fdf4",
      "title": "Dice"
    },
    "generator": "Sketchfab-7.40.0",
    "version": "2.0"
  },
  "bufferViews": [
    {
      "buffer": 0,
      "byteLength": 672000,
      "byteOffset": 0,
      "name": "floatBufferViews",
      "target": 34963
    },
    {
      "buffer": 0,
      "byteLength": 1169472,
      "byteOffset": 672000,
      "byteStride": 8,
      "name": "floatBufferViews",
      "target": 34962
    },
    {
      "buffer": 0,
      "byteLength": 877104,
      "byteOffset": 1841472,
      "byteStride": 12,
      "name": "floatBufferViews",
      "target": 34962
    },
    {
      "buffer": 0,
      "byteLength": 584736,
      "byteOffset": 2718576,
      "byteStride": 16,
      "name": "floatBufferViews",
      "target": 34962
    }
  ],
  "buffers": [
    {
      "byteLength": 3303312,
      "uri": "scene.bin"
    }
  ],
  "images": [
    {
      "uri": "textures/Body_baseColor.jpeg"
    },
    {
      "uri": "textures/Body_metallicRoughness.png"
    },
    {
      "uri": "textures/Body_normal.jpeg"
    },
    {
      "uri": "textures/Numbers_baseColor.jpeg"
    },
    {
      "uri": "textures/Numbers_metallicRoughness.png"
    },
    {
      "uri": "textures/Numbers_normal.jpeg"
    }
  ],
  "materials": [
    {
      "doubleSided": true,
      "emissiveFactor": [
        0,
        0,
        0
      ],
      "name": "Body",
      "normalTexture": {
        "index": 2,
        "scale": 1,
        "texCoord": 0
      },
      "pbrMetallicRoughness": {
        "baseColorFactor": [
          1,
          1,
          1,
          1
        ],
        "baseColorTexture": {
          "index": 0,
          "texCoord": 0
        },
        "metallicFactor": 0,
        "metallicRoughnessTexture": {
          "index": 1,
          "texCoord": 0
        },
        "roughnessFactor": 1
      }
    },
    {
      "doubleSided": true,
      "emissiveFactor": [
        0,
        0,
        0
      ],
      "name": "Numbers",
      "normalTexture": {
        "index": 5,
        "scale": 1,
        "texCoord": 0
      },
      "pbrMetallicRoughness": {
        "baseColorFactor": [
          1,
          1,
          1,
          1
        ],
        "baseColorTexture": {
          "index": 3,
          "texCoord": 0
        },
        "metallicFactor": 0,
        "metallicRoughnessTexture": {
          "index": 4,
          "texCoord": 0
        },
        "roughnessFactor": 1
      }
    }
  ],
  "meshes": [
    {
      "primitives": [
        {
          "attributes": {
            "NORMAL": 1,
            "POSITION": 0,
            "TANGENT": 2,
            "TEXCOORD_0": 3,
            "TEXCOORD_1": 4,
            "TEXCOORD_2": 5,
            "TEXCOORD_3": 6
          },
          "indices": 7,
          "material": 0,
          "mode": 4
        }
      ]
    },
    {
      "primitives": [
        {
          "attributes": {
            "NORMAL": 9,
            "POSITION": 8,
            "TANGENT": 10,
            "TEXCOORD_0": 11,
            "TEXCOORD_1": 12,
            "TEXCOORD_2": 13,
            "TEXCOORD_3": 14
          },
          "indices": 15,
          "material": 1,
          "mode": 4
        }
      ]
    }
  ],
  "nodes": [
    {
      "children": [
        1
      ],
      "name": "RootNode (gltf orientation matrix)",
      "rotation": [
        -0.70710678118654746,
        -0,
        -0,
        0.70710678118654757
      ]
    },
    {
      "children": [
        2
      ],
      "name": "RootNode (model correction matrix)"
    },
    {
      "children": [
        3
      ],
      "name": "root"
    },
    {
      "children": [
        4
      ],
      "matrix": [
        1,
        0,
        0,
        0,
        0,
        2.2204460492503131e-16,
        1,
        0,
        0,
        -1,
        2.2204460492503131e-16,
        0,
        0,
        0,
        0,
        1
      ],
      "name": "GLTF_SceneRootNode"
    },
    {
      "children": [
        5,
        6
      ],
      "matrix": [
        0.01499590277671814,
        0,
        0,
        0,
        0,
        -2.5281095371356446e-09,
        0.014995839446782852,
        0,
        0,
        -0.014995841309428002,
        -2.5281098511541418e-09,
        0,
        0,
        0.01549999974668026,
        0,
        1
      ],
      "name": "Dice001_2"
    },
    {
      "mesh": 0,
      "name": ""
    },
    {
      "mesh": 1,
      "name": ""
    }
  ],
  "samplers": [
    {
      "magFilter": 9729,
      "minFilter": 9987,
      "wrapS": 10497,
      "wrapT": 10497
    }
  ],
  "scene": 0,
  "scenes": [
    {
      "name": "OSG_Scene",
      "nodes": [
        0
      ]
    }
  ],
  "textures": [
    {
      "sampler": 0,
      "source": 0
    },
    {
      "sampler": 0,
      "source": 1
    },
    {
      "sampler": 0,
      "source": 2
    },
    {
      "sampler": 0,
      "source": 3
    },
    {
      "sampler": 0,
      "source": 4
    },
    {
      "sampler": 0,
      "source": 5
    }
  ]
}

